<svg width="24" height="24" viewBox="0 0 24 24" fill="none" xmlns="http://www.w3.org/2000/svg">
<path d="M14.4998 6.5C15.237 6.64382 15.9687 6.96892 16.4998 7.5C17.0309 8.03108 17.356 8.76284 17.4998 9.5M14.9998 3C16.5313 3.17014 17.9095 3.91107 18.9998 5C20.0901 6.08893 20.8278 7.46869 20.9998 9M20.9993 16.4767V19.1864C21.0035 20.2223 20.0721 21.0873 19.0263 20.9929C9.99988 21 2.99988 13.935 3.00694 4.96919C2.91275 3.92895 3.77345 3.00106 4.80799 3.00009H7.52313C7.96235 2.99577 8.38816 3.151 8.72119 3.43684C9.66801 4.24949 10.277 7.00777 10.0427 8.10428C9.85975 8.96036 8.99678 9.55929 8.41007 10.1448C9.69846 12.4062 11.5745 14.2785 13.8404 15.5644C14.4271 14.9788 15.0272 14.1176 15.885 13.935C16.9853 13.7008 19.7614 14.3106 20.5708 15.264C20.8578 15.6021 21.0103 16.0337 20.9993 16.4767Z" stroke="#363E45" stroke-width="2" stroke-linecap="round" stroke-linejoin="round"/>
</svg>
